# xmcd
#
# Track frame offsets: 
#        150
#        15666
#        25350
#        36480
#        52155
#        65208
#        84558
#        100955
#        118367
#        133892
#        151592
#        167961
#        182240
#        197363
#
# Disc length: 2812 seconds
#
# Revision: 0
# Processed by: cddbd v1.5.2PL0 Copyright (c) Steve Scherf et al.
# Submitted via: ExactAudioCopy v0.99pb5
#
DISCID=cc0afa0e
DTITLE=Little Victor - Boogie All Night
DYEAR=2011
DGENRE=Blues
TTITLE0=I'm Gonna Let You Go
TTITLE1=Boogie All Nite Long
TTITLE2=Another Sleepless Night
TTITLE3=Goin' Back To Memphis
TTITLE4=Iraq Blues
TTITLE5=Blind Man Boogie
TTITLE6=Miz Mary Lee
TTITLE7=Ida Mae Blues
TTITLE8=Can't Get No Mail
TTITLE9=Raggedy and Dirty
TTITLE10=This Ole House
TTITLE11=Swamp Twist
TTITLE12=Run, Walk Or Crawl
TTITLE13=I'm Low
EXTD=
EXTT0=
EXTT1=
EXTT2=
EXTT3=
EXTT4=
EXTT5=
EXTT6=
EXTT7=
EXTT8=
EXTT9=
EXTT10=
EXTT11=
EXTT12=
EXTT13=
PLAYORDER=
